<svg width="139" height="146" viewBox="0 0 139 146" fill="none" xmlns="http://www.w3.org/2000/svg">
<path d="M89.0957 0.331846L8.73745 6.29808C2.25603 6.86305 0 11.1213 0 16.2262V104.789C0 108.765 1.40357 112.167 4.79224 116.712L23.6816 141.405C26.7846 145.381 29.6065 146.233 35.5319 145.951L128.849 140.272C136.739 139.707 139 136.013 139 129.769V30.1352C139 26.9086 137.732 25.979 133.999 23.2246L133.356 22.7574L107.709 4.59009C101.503 0.0545502 98.9669 -0.519693 89.0957 0.331846ZM37.6424 28.5047C30.0229 29.0206 28.2946 29.1374 23.9672 25.5991L12.9639 16.8004C11.8454 15.6617 12.4068 14.2403 15.2243 13.9581L92.4746 8.28392C98.9615 7.71459 102.34 9.987 104.877 11.9728L118.126 21.6236C118.692 21.9102 120.101 23.6089 118.407 23.6089L38.6301 28.4365L37.6424 28.5047ZM28.7594 128.918V44.3357C28.7594 40.6419 29.8872 38.9388 33.2661 38.6517L124.894 33.2591C128.002 32.9769 129.406 34.9622 129.406 38.6517V122.669C129.406 126.362 128.839 129.486 123.766 129.769L36.0835 134.879C31.0106 135.161 28.7594 133.463 28.7594 128.918ZM115.314 48.8707C115.876 51.4259 115.314 53.981 112.772 54.2731L108.547 55.1148V117.563C104.877 119.549 101.498 120.683 98.6753 120.683C94.1644 120.683 93.0361 119.261 89.6572 115.008L62.0211 71.2962V113.587L70.7629 115.577C70.7629 115.577 70.7629 120.688 63.7103 120.688L44.2644 121.821C43.6981 120.683 44.2644 117.845 46.2354 117.281L51.3127 115.865V59.9478L44.265 59.3736C43.6981 56.819 45.1066 53.1295 49.0572 52.8424L69.9213 51.4313L98.6759 95.7076V56.5368L91.3469 55.6896C90.7806 52.5602 93.0361 50.2878 95.8535 50.0105L115.314 48.8707Z" fill="#A8D883"/>
</svg>
