<svg width="150" height="146" viewBox="0 0 150 146" fill="none" xmlns="http://www.w3.org/2000/svg">
<path d="M75 0C65.1509 0 55.3982 1.93508 46.2987 5.69475C37.1993 9.45443 28.9314 14.9651 21.967 21.912C7.90176 35.9421 0 54.9709 0 74.8124C0 107.879 21.525 135.934 51.3 145.884C55.05 146.483 56.25 144.163 56.25 142.144V129.5C35.475 133.989 31.05 119.475 31.05 119.475C27.6 110.797 22.725 108.478 22.725 108.478C15.9 103.84 23.25 103.989 23.25 103.989C30.75 104.513 34.725 111.695 34.725 111.695C41.25 123.066 52.275 119.7 56.55 117.904C57.225 113.041 59.175 109.75 61.275 107.879C44.625 106.009 27.15 99.5753 27.15 71.0718C27.15 62.7676 30 56.1093 34.875 50.7976C34.125 48.9273 31.5 41.1468 35.625 31.0471C35.625 31.0471 41.925 29.0272 56.25 38.678C62.175 37.0321 68.625 36.2092 75 36.2092C81.375 36.2092 87.825 37.0321 93.75 38.678C108.075 29.0272 114.375 31.0471 114.375 31.0471C118.5 41.1468 115.875 48.9273 115.125 50.7976C120 56.1093 122.85 62.7676 122.85 71.0718C122.85 99.6501 105.3 105.934 88.575 107.805C91.275 110.124 93.75 114.687 93.75 121.645V142.144C93.75 144.163 94.95 146.557 98.775 145.884C128.55 135.859 150 107.879 150 74.8124C150 64.9879 148.06 55.2596 144.291 46.1829C140.522 37.1063 134.997 28.859 128.033 21.912C121.069 14.9651 112.801 9.45443 103.701 5.69475C94.6018 1.93508 84.8491 0 75 0Z" fill="#A8D883"/>
</svg>
