<svg width="146" height="146" viewBox="0 0 146 146" fill="none" xmlns="http://www.w3.org/2000/svg">
<path d="M0 0H146V146H0V0ZM38.3656 121.991C41.61 128.886 48.0178 134.563 58.9678 134.563C71.1344 134.563 79.4889 128.074 79.4889 113.88V66.9978H65.7V113.556C65.7 120.531 62.8611 122.316 58.4 122.316C53.6956 122.316 51.7489 119.071 49.5589 115.259L38.3656 121.991ZM86.87 120.531C90.9256 128.48 99.1178 134.563 111.933 134.563C124.911 134.563 134.644 127.831 134.644 115.421C134.644 103.984 128.074 98.8744 116.394 93.8455L112.988 92.3856C107.067 89.8711 104.552 88.1678 104.552 84.1122C104.552 80.7867 107.067 78.1911 111.122 78.1911C115.016 78.1911 117.611 79.8944 119.963 84.1122L130.589 77.0556C126.128 69.2689 119.801 66.2678 111.122 66.2678C98.8744 66.2678 91.0067 74.0544 91.0067 84.3555C91.0067 95.5489 97.5767 100.821 107.472 105.039L110.879 106.499C117.206 109.257 120.937 110.96 120.937 115.664C120.937 119.558 117.287 122.397 111.609 122.397C104.877 122.397 100.983 118.909 98.0633 114.042L86.87 120.531Z" fill="#A8D883"/>
</svg>
