<svg width="129" height="146" viewBox="0 0 129 146" fill="none" xmlns="http://www.w3.org/2000/svg">
<path d="M64.5 0C62.565 0 60.5583 0.503448 58.91 1.43842L5.59 32.3645C2.15 34.3783 0 38.1182 0 42.1458V103.854C0 107.882 2.15 111.622 5.59 113.635L19.565 121.691C26.3733 124.999 28.6667 125.071 31.82 125.071C41.8533 125.071 47.6583 118.958 47.6583 108.313V47.3961C47.6583 46.533 46.9417 45.8138 46.0817 45.8138H39.4167C38.485 45.8138 37.7683 46.533 37.7683 47.3961V108.313C37.7683 113.06 32.895 117.735 25.0833 113.779L10.3917 105.365C10.1504 105.194 9.95306 104.967 9.81599 104.705C9.67892 104.442 9.60603 104.151 9.60333 103.854V42.1458C9.60333 41.4985 9.89 40.9232 10.3917 40.6355L63.7117 9.78128C64.1417 9.4936 64.8583 9.4936 65.2883 9.78128L118.608 40.6355C119.11 40.9232 119.397 41.4985 119.397 42.1458V103.854C119.397 104.43 119.11 105.005 118.608 105.365L65.2883 136.219C64.8583 136.506 64.1417 136.506 63.64 136.219L50.1667 128.02C49.5933 127.804 49.02 127.732 48.6617 127.948C44.8633 130.105 44.1467 130.537 40.635 131.616C39.775 131.903 38.4133 132.407 41.1367 133.917L58.91 144.49C60.63 145.497 62.4933 146 64.5 146C66.5067 146 68.37 145.497 70.09 144.49L123.41 113.635C126.85 111.622 129 107.882 129 103.854V42.1458C129 38.1182 126.85 34.3783 123.41 32.3645L70.09 1.43842C68.4417 0.503448 66.5067 0 64.5 0ZM78.8333 44.2315C63.64 44.2315 54.5383 50.6325 54.5383 61.4207C54.5383 73 63.5683 76.3803 78.1883 77.8187C95.6033 79.5448 96.965 82.134 96.965 85.5862C96.965 91.5557 92.1633 94.0729 80.9833 94.0729C66.7933 94.0729 63.7833 90.5488 62.7083 83.5005C62.6329 83.1362 62.4352 82.8089 62.1482 82.5733C61.8612 82.3377 61.5024 82.208 61.1317 82.2059H54.2517C53.3917 82.2059 52.7467 82.8532 52.7467 83.7882C52.7467 92.7064 57.62 103.495 80.9833 103.495C97.825 103.495 107.5 96.8059 107.5 85.1547C107.5 73.5754 99.76 70.5547 83.3483 68.3251C66.7933 66.1675 65.145 65.0168 65.145 61.133C65.145 57.8966 66.5783 53.5813 78.8333 53.5813C89.5833 53.5813 93.8117 55.9547 95.46 63.3626C95.6033 64.0818 96.2483 64.5852 96.965 64.5852H103.917C104.275 64.5852 104.705 64.4414 104.992 64.0818C105.278 63.7941 105.493 63.3626 105.35 62.931C104.347 50.1291 95.89 44.2315 78.8333 44.2315Z" fill="#A8D883"/>
</svg>
