<svg width="150" height="146" viewBox="0 0 150 146" fill="none" xmlns="http://www.w3.org/2000/svg">
<path d="M0 0V146H150V0H0ZM6.24844 6.23816H143.747V139.757H6.24844V6.23816ZM39.3562 34.1718C39.3562 33.7553 39.4547 33.4418 39.9891 33.4418C45.3409 33.2241 50.6969 33.1258 56.0531 33.1469C73.3875 33.1469 80.9063 42.6282 80.9063 54.7675C80.9063 70.6086 69.4312 77.413 55.2937 77.413C52.9266 77.413 52.0969 77.3148 50.4375 77.3148V101.299C50.4375 101.809 50.2406 102.005 49.7297 102.005H40.0875C39.5484 102.005 39.3562 101.809 39.3562 101.299V34.1718ZM50.4375 67.3187C51.9047 67.417 53.025 67.417 55.5141 67.417C62.8125 67.417 69.675 64.8572 69.675 54.9641C69.675 47.0412 64.7906 43.0213 56.4188 43.0213C53.9531 43.0213 51.5859 43.143 50.4375 43.2412V67.3187ZM90.4547 61.6655C90.4547 60.9355 90.4547 59.0823 90.1359 55.5959C90.1359 55.0858 90.2109 54.9641 90.6234 54.7675C97.9178 51.9657 105.66 50.504 113.475 50.4528C113.986 50.4528 114.206 50.5511 114.206 51.0612V60.1306C114.206 60.6407 114.038 60.739 113.522 60.739C109.541 60.4908 105.546 60.9116 101.705 61.9838V101.299C101.705 101.809 101.484 102.005 100.973 102.005H91.1578C90.6469 102.005 90.45 101.809 90.45 101.299L90.4547 61.6655Z" fill="#A8D883"/>
</svg>
