<svg width="150" height="146" viewBox="0 0 150 146" fill="none" xmlns="http://www.w3.org/2000/svg">
<path d="M0 0V146H150V0H0ZM6.24844 6.23816H143.747V139.757H6.24844V6.23816ZM36.2531 34.1952C36.2531 33.7787 37.1344 33.4652 37.6453 33.4652C43.0141 33.2384 48.3874 33.1323 53.7609 33.1469C71.0953 33.1469 77.8313 42.6282 77.8313 54.7675C77.8313 70.6367 66.3094 77.4364 52.1953 77.4364C49.8047 77.4364 48.9984 77.3148 47.3391 77.3148V101.299C47.3391 101.809 47.1422 102.029 46.6312 102.029H36.9609C36.45 102.029 36.2531 101.832 36.2531 101.322V34.1952ZM47.3391 67.3468C48.7781 67.4451 49.9266 67.4451 52.4156 67.4451C59.7141 67.4451 66.6 64.8618 66.6 54.9922C66.6 47.0693 61.6687 43.0494 53.3203 43.0494C50.8547 43.0494 48.4875 43.1476 47.3391 43.2459V67.3468ZM101.147 59.9106C96.1922 59.9106 94.5328 62.3956 94.5328 64.4453C94.5328 66.7104 95.6578 68.25 102.272 71.6616C112.064 76.4162 115.163 80.9229 115.163 87.6243C115.163 97.5923 107.522 102.955 97.2188 102.955C91.7484 102.955 87.0891 101.809 84.4031 100.274C84.0141 100.077 83.9156 99.7637 83.9156 99.2489V90.0859C83.9156 89.4775 84.2109 89.2576 84.6234 89.5758C88.3645 92.0042 92.733 93.2922 97.1953 93.2822C102.15 93.2822 104.203 91.2324 104.203 88.4339C104.203 86.1689 102.764 84.2174 96.4875 80.9276C87.6 76.6877 83.8875 72.3729 83.8875 65.1567C83.8875 57.1121 90.1875 50.4341 101.1 50.4341C106.472 50.4341 110.255 51.2624 112.331 52.1656C112.842 52.4838 112.941 52.9939 112.941 53.4104V61.9651C112.941 62.4752 112.622 62.7934 112.012 62.5734C109.228 60.9402 105.127 59.8919 101.123 59.8919L101.147 59.9106Z" fill="#A8D883"/>
</svg>
