<svg width="150" height="146" viewBox="0 0 150 146" fill="none" xmlns="http://www.w3.org/2000/svg">
<path d="M123.437 2.0284e-05H26.5632C23.0737 -0.00429111 19.6176 0.678735 16.3928 2.00998C13.1681 3.34123 10.2381 5.29453 7.77058 7.75804C5.3031 10.2215 3.34663 13.1468 2.01323 16.3664C0.679833 19.5859 -0.00429805 23.0365 2.03168e-05 26.5204V119.48C-0.00429805 122.964 0.679833 126.414 2.01323 129.634C3.34663 132.853 5.3031 135.778 7.77058 138.242C10.2381 140.705 13.1681 142.659 16.3928 143.99C19.6176 145.321 23.0737 146.004 26.5632 146H123.437C126.926 146.004 130.382 145.321 133.607 143.99C136.832 142.659 139.762 140.705 142.229 138.242C144.697 135.778 146.653 132.853 147.987 129.634C149.32 126.414 150.004 122.964 150 119.48V26.5204C150.004 23.0365 149.32 19.5859 147.987 16.3664C146.653 13.1468 144.697 10.2215 142.229 7.75804C139.762 5.29453 136.832 3.34123 133.607 2.00998C130.382 0.678735 126.926 -0.00429111 123.437 2.0284e-05ZM143.677 117.046C143.694 120.022 143.122 122.971 141.994 125.725C140.866 128.479 139.203 130.984 137.102 133.094C135.002 135.205 132.504 136.88 129.752 138.023C127.001 139.167 124.05 139.756 121.07 139.757H28.935C22.922 139.748 17.1578 137.36 12.906 133.115C8.65413 128.87 6.26163 123.115 6.25295 117.112V28.8837C6.26163 22.8804 8.65413 17.1254 12.906 12.8805C17.1578 8.63548 22.922 6.24684 28.935 6.23817H120.995C127.01 6.23942 132.779 8.62567 137.032 12.8723C141.285 17.1188 143.676 22.8781 143.677 28.8837V117.046ZM59.3044 68.3202L76.8117 101.884C77.1304 102.394 76.9382 102.88 76.4414 102.88H65.5526C64.873 102.88 64.5542 102.712 64.2589 102.076C60.2606 93.8391 56.1779 85.6027 52.0015 76.7532H51.8843C48.0412 85.2748 44.0768 93.7414 39.9925 102.15C39.7066 102.637 39.3878 102.829 38.8722 102.829H28.5647C27.932 102.829 27.8851 102.319 28.2038 101.954L45.3173 69.3872L28.7663 36.4368C28.3726 35.9267 28.7663 35.557 29.1272 35.557H39.8706C40.5034 35.557 40.7519 35.6834 40.9956 36.2356C44.9843 44.5373 48.8828 52.8818 52.6905 61.2678H52.8077C56.4451 53.0314 60.4528 44.4767 64.3058 36.3105C64.6246 35.8004 64.8167 35.4822 65.4308 35.4822H75.4852C75.9961 35.4822 76.1929 35.8753 75.8789 36.362L59.3044 68.3202ZM79.8819 78.4847C79.8819 63.9587 89.5519 52.5961 104.931 52.5961C106.248 52.5961 106.933 52.5961 108.179 52.7225V36.1982C108.179 35.8051 108.493 35.5617 108.812 35.5617H118.674C119.185 35.5617 119.312 35.7536 119.312 36.0484V93.3524C119.312 95.0324 119.312 97.1524 119.631 99.4408C119.631 99.8339 119.504 99.9509 119.12 100.152C114.122 102.523 108.659 103.755 103.126 103.76C89.5519 103.83 79.8819 95.4723 79.8819 78.4847ZM108.184 62.5173C107.03 62.0768 105.801 61.8623 104.565 61.8855C96.686 61.8855 91.1925 67.9505 91.1925 77.998C91.1925 89.4775 96.8032 94.0824 103.886 94.0824C105.372 94.0824 107.012 93.914 108.184 93.4039V62.5173Z" fill="#A8D883"/>
</svg>
