<svg width="150" height="146" viewBox="0 0 150 146" fill="none" xmlns="http://www.w3.org/2000/svg">
<path d="M0 0V146H150V0H0ZM6.24844 6.23816H143.747V139.757H6.24844V6.23816ZM42.4078 82.6778L37.4531 101.299C37.3547 101.809 37.1344 102.005 36.525 102.005H27.3469C26.7375 102.005 26.6391 101.785 26.7375 101.079L44.4844 39.0949C44.7797 37.9718 44.9953 37.0733 45.0937 33.9753C45.0937 33.5587 45.2906 33.3435 45.6047 33.3435H58.7156C59.1328 33.3435 59.325 33.4652 59.4234 33.9753L79.3219 101.172C79.4203 101.682 79.3219 101.977 78.8109 101.977H68.5078C67.9969 101.977 67.6781 101.809 67.5797 101.392L62.4281 82.6497H42.4078V82.6778ZM59.9344 72.5367C58.1766 65.6387 53.9297 50.5043 52.3922 43.2132H52.2938C50.9531 50.4996 47.5828 62.8589 44.9953 72.5367H59.9344ZM93.4312 78.9246C93.5531 87.381 97.5562 93.0388 107.053 93.0388C110.766 93.0388 113.939 92.5521 117.234 91.0874C117.652 90.8908 117.966 91.0125 117.966 91.5273V99.3519C117.966 99.9603 117.769 100.278 117.333 100.597C114.038 102.23 109.936 102.96 104.784 102.96C88.2797 102.96 82.1016 90.8206 82.1016 77.2212C82.1016 62.4986 89.7187 50.4575 103.148 50.4575C116.747 50.4575 121.481 61.8902 121.481 71.1515C121.481 74.1512 121.261 76.6128 120.97 77.7547C120.848 78.2648 120.652 78.4379 120.141 78.5362C118.894 78.7561 115.186 78.9527 109.716 78.9527H93.4312V78.9246ZM106.13 70.3419C109.327 70.3419 110.452 70.3419 110.77 70.2436C110.77 69.8271 110.869 69.4621 110.869 69.1719C110.869 65.7604 109.209 59.5175 102.713 59.5175C96.7313 59.5175 94.1438 64.7823 93.5344 70.3419H106.13Z" fill="#A8D883"/>
</svg>
