<svg width="150" height="146" viewBox="0 0 150 146" fill="none" xmlns="http://www.w3.org/2000/svg">
<path d="M0 0V146H150V0H0ZM6.24844 6.23816H143.747V139.757H6.24844V6.23816ZM52.0266 82.6778L47.0719 101.374C46.9734 101.912 46.7766 102.005 46.1672 102.005H36.9891C36.3562 102.005 36.2578 101.809 36.3563 101.102L54.1031 39.0481C54.4219 37.925 54.6141 36.9282 54.7125 33.8302C54.7125 33.4137 54.9328 33.2218 55.2516 33.2218H68.3391C68.7563 33.2218 68.9719 33.3201 69.0703 33.8302L88.9687 101.2C89.0906 101.71 88.9688 102.005 88.4578 102.005H78.1547C77.6156 102.005 77.325 101.884 77.2266 101.467L72.0516 82.6731H52.0078L52.0266 82.6778ZM69.4594 72.5367C67.7016 65.6387 63.5766 50.5277 62.0391 43.2132H61.9172C60.6 50.4996 57.2766 62.8589 54.7172 72.5367H69.4594ZM97.5844 37.8548C97.5844 33.8349 100.369 31.4669 103.983 31.4669C107.794 31.4669 110.381 34.0501 110.381 37.8548C110.381 41.973 107.695 44.2427 103.861 44.2427C100.125 44.2427 97.5609 41.9777 97.5609 37.8548H97.5844ZM98.2922 52.0392C98.2922 51.5525 98.4891 51.356 99 51.356H108.816C109.378 51.356 109.57 51.5525 109.57 52.086V101.345C109.57 101.856 109.472 102.052 108.839 102.052H99.1688C98.5359 102.052 98.3391 101.757 98.3391 101.247V52.0346L98.2922 52.0392Z" fill="#A8D883"/>
</svg>
