<svg width="102" height="146" viewBox="0 0 102 146" fill="none" xmlns="http://www.w3.org/2000/svg">
<path d="M91.264 48.6607C95.7706 45.2564 99.0995 40.5102 100.779 35.0943C102.459 29.6785 102.404 23.8677 100.623 18.4849C98.8413 13.1022 95.4235 8.42042 90.8536 5.10283C86.2837 1.78524 80.7932 0 75.16 0H26.8479C21.2147 0 15.7242 1.78524 11.1543 5.10283C6.58437 8.42042 3.16665 13.1022 1.38526 18.4849C-0.396134 23.8677 -0.450882 29.6785 1.22877 35.0943C2.90842 40.5102 6.23732 45.2564 10.7439 48.6607C7.33175 51.2364 4.57795 54.5937 2.7106 58.4548C0.843254 62.3159 -0.0838921 66.5695 0.00596056 70.8634C0.0958133 75.1572 1.20008 79.3677 3.22729 83.1461C5.2545 86.9245 8.14631 90.1621 11.6632 92.5906C7.66293 95.6539 4.50514 99.6949 2.48883 104.331C0.472511 108.967 -0.335598 114.045 0.141016 119.083C0.617631 124.122 2.36319 128.955 5.21242 133.124C8.06166 137.293 11.9203 140.661 16.4229 142.908C20.9255 145.155 25.9231 146.208 30.9425 145.966C35.9619 145.724 40.8369 144.196 45.106 141.526C49.3751 138.856 52.897 135.133 55.3381 130.709C57.7793 126.285 59.059 121.306 59.056 116.245V91.9147C61.8757 94.0448 65.0844 95.5946 68.4988 96.4757C71.9132 97.3568 75.4665 97.5518 78.9557 97.0498C82.445 96.5477 85.8019 95.3583 88.8348 93.5496C91.8677 91.7408 94.5172 89.3481 96.632 86.508C98.7468 83.6679 100.286 80.4361 101.16 76.997C102.035 73.5579 102.229 69.979 101.73 66.4646C101.232 62.9501 100.051 59.569 98.2551 56.5142C96.4593 53.4594 94.0837 50.7908 91.264 48.6607ZM91.264 27.0337C91.264 31.3356 89.5673 35.4613 86.5472 38.5032C83.5271 41.5451 79.431 43.254 75.16 43.254H59.056V10.8135H75.16C79.431 10.8135 83.5271 12.5224 86.5472 15.5643C89.5673 18.6062 91.264 22.7319 91.264 27.0337ZM10.7439 27.0337C10.7439 22.7319 12.4406 18.6062 15.4607 15.5643C18.4808 12.5224 22.5769 10.8135 26.8479 10.8135H48.32V43.254H26.8479C22.5769 43.254 18.4808 41.5451 15.4607 38.5032C12.4406 35.4613 10.7439 31.3356 10.7439 27.0337ZM26.8479 86.508C22.5769 86.508 18.4808 84.7991 15.4607 81.7572C12.4406 78.7153 10.7439 74.5896 10.7439 70.2877C10.7439 65.9859 12.4406 61.8602 15.4607 58.8183C18.4808 55.7764 22.5769 54.0675 26.8479 54.0675H48.32V86.508H26.8479ZM48.32 116.245C48.32 119.988 47.2181 123.647 45.1536 126.759C43.0891 129.87 40.1549 132.296 36.7218 133.728C33.2887 135.161 29.5111 135.535 25.8666 134.805C22.2221 134.075 18.8744 132.273 16.2468 129.626C13.6193 126.98 11.8299 123.608 11.1049 119.937C10.38 116.266 10.7521 112.461 12.1741 109.003C13.5961 105.546 16.0042 102.59 19.0939 100.511C22.1835 98.4313 25.816 97.3215 29.5319 97.3215H48.32V116.245ZM75.16 86.508C71.9749 86.508 68.8614 85.5567 66.2131 83.7744C63.5648 81.9921 61.5007 79.4588 60.2818 76.495C59.0629 73.5311 58.744 70.2697 59.3654 67.1233C59.9868 63.9769 61.5205 61.0867 63.7727 58.8183C66.0249 56.5498 68.8944 55.005 72.0182 54.3792C75.1421 53.7533 78.3801 54.0745 81.3227 55.3022C84.2653 56.5299 86.7804 58.6088 88.55 61.2762C90.3195 63.9437 91.264 67.0797 91.264 70.2877C91.264 74.5896 89.5673 78.7153 86.5472 81.7572C83.5271 84.7991 79.431 86.508 75.16 86.508Z" fill="#A8D883"/>
</svg>
