<svg width="146" height="146" viewBox="0 0 146 146" fill="none" xmlns="http://www.w3.org/2000/svg">
<path d="M73 40C66.4732 40 60.093 41.9354 54.6662 45.5615C49.2394 49.1876 45.0097 54.3415 42.512 60.3714C40.0143 66.4014 39.3608 73.0366 40.6341 79.438C41.9074 85.8393 45.0504 91.7194 49.6655 96.3345C54.2806 100.95 60.1607 104.093 66.562 105.366C72.9634 106.639 79.5986 105.986 85.6286 103.488C91.6585 100.99 96.8124 96.7606 100.438 91.3338C104.065 85.907 106 79.5268 106 73C105.989 64.2513 102.509 55.864 96.3222 49.6778C90.136 43.4915 81.7487 40.0111 73 40Z" fill="#A8D883"/>
<path d="M120.5 42C128.508 42 135 35.5081 135 27.5C135 19.4919 128.508 13 120.5 13C112.492 13 106 19.4919 106 27.5C106 35.5081 112.492 42 120.5 42Z" fill="#A8D883"/>
<path d="M139.436 42.7573L138.801 41.3624L137.787 42.5096C135.304 45.3294 132.163 47.4922 128.643 48.8058L127.665 49.1643L128.063 50.1192C131.093 57.3665 132.648 65.1449 132.638 73.0001C132.638 105.889 105.883 132.638 72.9999 132.638C40.1174 132.638 13.3616 105.889 13.3616 73.0001C13.3616 40.111 40.1109 13.3617 72.9999 13.3617C81.8447 13.3433 90.5802 15.3147 98.5597 19.13L99.495 19.5537L99.9024 18.6021C101.388 15.1522 103.7 12.1212 106.635 9.77693L107.831 8.82206L106.472 8.14747C96.1354 2.77142 84.6513 -0.0238713 72.9999 0.000153564C32.7489 0.000153564 0 32.7491 0 73.0001C0 113.251 32.7489 146 72.9999 146C113.251 146 146 113.251 146 73.0001C146.017 62.5639 143.778 52.2474 139.436 42.7573Z" fill="#A8D883"/>
</svg>
