<svg width="278" height="146" viewBox="0 0 278 146" fill="none" xmlns="http://www.w3.org/2000/svg">
<path d="M81.1992 52.2593H70.2645L64.2991 82.8817H74.0059C80.4462 82.8817 85.2417 81.6675 88.3924 79.2505C91.5431 76.822 93.6628 72.7861 94.7632 67.1195C95.8289 61.6843 95.3424 57.8449 93.3269 55.613C91.2998 53.3811 87.2688 52.2593 81.1992 52.2593ZM139 0C62.2372 0 0 32.6809 0 72.9942C0 113.308 62.2372 146 139 146C215.763 146 278 113.308 278 72.9942C278 32.6809 215.763 0 139 0ZM101.238 86.166C98.2151 89.0571 94.5779 91.2312 90.6164 92.538C86.7244 93.7869 81.7552 94.4345 75.7318 94.4345H62.0519L58.2642 113.874H42.3023L56.5498 40.7181H87.2457C96.4776 40.7181 103.207 43.135 107.447 47.9805C111.686 52.8144 112.961 59.568 111.269 68.2413C110.622 71.6732 109.429 74.9799 107.737 78.0363C106.08 80.9852 103.914 83.7028 101.238 86.166ZM147.85 94.4345L154.139 62.0659C154.869 58.3884 154.591 55.8674 153.352 54.5375C152.112 53.196 149.46 52.5253 145.394 52.5253H132.745L124.59 94.4461H108.744L122.992 21.2784H138.826L135.038 40.7297H149.147C158.031 40.7297 164.147 42.2793 167.518 45.367C170.889 48.4547 171.897 53.462 170.565 60.3891L163.939 94.4345H147.85ZM235.848 68.2413C235.211 71.6761 234.018 74.9844 232.315 78.0363C230.659 80.9852 228.493 83.7028 225.817 86.166C222.792 89.0483 219.164 91.2246 215.195 92.538C211.303 93.7869 206.334 94.4345 200.299 94.4345H186.631L182.843 113.886H166.881L181.129 40.7297H211.813C221.045 40.7297 227.775 43.1466 232.014 47.9921C236.254 52.8144 237.539 59.568 235.848 68.2413ZM205.79 52.2593H194.866L188.889 82.8817H198.596C205.048 82.8817 209.844 81.6675 212.983 79.2505C216.133 76.822 218.253 72.7861 219.365 67.1195C220.431 61.6843 219.933 57.8449 217.917 55.613C215.902 53.3811 211.848 52.2593 205.79 52.2593Z" fill="#A8D883"/>
</svg>
