<svg width="146" height="146" viewBox="0 0 146 146" fill="none" xmlns="http://www.w3.org/2000/svg">
<path fill-rule="evenodd" clip-rule="evenodd" d="M73 0C87.438 0 101.552 4.28137 113.557 12.3027C125.561 20.3241 134.918 31.7251 140.443 45.0641C145.968 58.4031 147.414 73.081 144.597 87.2416C141.781 101.402 134.828 114.41 124.619 124.619C114.41 134.828 101.402 141.781 87.2416 144.597C73.081 147.414 58.4031 145.968 45.0641 140.443C31.7251 134.918 20.3241 125.561 12.3027 113.557C4.28137 101.552 0 87.438 0 73C0 53.6392 7.69105 35.0714 21.3812 21.3812C35.0714 7.69105 53.6392 0 73 0Z" fill="#A8D883"/>
<path d="M118.434 31.4626C115.156 18.5287 93.8351 14.2937 73.6572 21.4838C61.0205 25.756 49.3454 32.4938 39.3001 41.3113C28.1873 51.7688 26.4136 60.8735 27.1428 64.6767C29.7283 78.0997 47.998 86.8714 55.5117 93.38V93.4164C53.2984 94.5142 37.0817 102.781 33.2757 111.21C29.2733 120.117 33.9118 126.506 36.9886 127.364C41.6081 128.483 46.4599 128.119 50.8632 126.323C55.2666 124.527 59.0005 121.389 61.5412 117.349C63.641 114.076 64.9547 110.356 65.3783 106.484C65.802 102.612 65.3239 98.6938 63.982 95.0397C67.6011 94.1145 71.3632 93.8972 75.0638 94.3998C87.7641 95.8929 90.2566 103.869 89.7809 107.209C89.5571 108.398 89.0815 109.524 88.3864 110.512C87.6913 111.499 86.793 112.325 85.7526 112.932C84.8631 113.488 84.589 113.676 84.6666 114.092C84.7752 114.69 85.1837 114.669 85.9439 114.539C87.8524 113.935 89.5341 112.762 90.7674 111.177C92.0006 109.592 92.7276 107.668 92.8525 105.658C93.1576 97.8543 85.706 89.0826 72.5092 89.3063C68.6764 89.1962 64.8517 89.7235 61.1896 90.8671C61.0063 90.6564 60.8201 90.4483 60.6311 90.2428C52.471 81.4866 37.392 75.2902 38.028 63.5165C38.2607 59.2347 39.7397 47.9656 66.9865 34.2929C89.3258 23.0915 107.208 26.1767 110.3 33.0078C114.716 42.7681 100.744 60.8995 77.5459 63.5165C74.982 64.0402 72.3337 63.9763 69.7976 63.3296C67.2615 62.683 64.9026 61.4701 62.8961 59.7809C61.6757 58.4282 61.4947 58.371 61.0396 58.6207C60.3002 59.0318 60.7707 60.2284 61.0396 60.9359C61.9279 62.5466 63.1269 63.9625 64.5663 65.1007C66.0058 66.2389 67.6566 67.0765 69.4221 67.5642C78.5428 69.5581 88.0561 68.6115 96.612 64.8588C110.683 59.4011 121.656 44.1832 118.434 31.4626ZM58.6351 97.3861C59.6621 100.948 59.6099 104.738 58.4851 108.27C58.3644 108.638 58.2317 109.002 58.0869 109.363C57.9421 109.723 57.7853 110.07 57.6163 110.403C56.7461 112.195 55.6188 113.848 54.2706 115.309C50.0665 119.924 44.1869 121.672 41.6685 120.2C38.9485 118.613 40.3085 112.105 45.1849 106.917C48.9318 103.19 53.2518 100.094 57.9783 97.7503L58.6351 97.3861Z" fill="white"/>
</svg>
