<svg width="125" height="146" viewBox="0 0 125 146" fill="none" xmlns="http://www.w3.org/2000/svg">
<path d="M62.5714 0L0 36.5V109.5L62.7133 146L125 109.644V36.3563L62.5714 0ZM13.8492 102.22V44.6643L62.5468 15.7081L111.436 43.893V101.757L62.7303 130.876L13.8492 102.22ZM38.8266 87.9408V108.436L21.1523 98.6763V77.5465L38.8266 87.9408ZM42.0193 56.3135L57.6223 47.1161L39.948 36.5759L24.237 45.9695L42.0193 56.3135ZM63.1279 49.9463L47.3209 59.3972L63.4092 68.756L79.0853 59.4631L63.1279 49.9463ZM60.1682 74.2062L44.3319 64.9942V84.037L60.1685 92.7816V74.2065L60.1682 74.2062ZM83.4215 56.8927L100.769 46.6094L84.7622 37.0638L67.3771 47.458L83.4215 56.8927ZM79.2572 34.2336L61.5823 23.6931L44.1976 34.087L61.8724 44.4812L79.2572 34.2336ZM21.1523 51.5109V70.666L38.8266 80.4255V61.7919L21.1523 51.5106V51.5109ZM85.9827 88.6787V109.237L103.848 98.5298V77.6107L85.9827 88.6787ZM85.9827 62.7446V81.2L103.848 70.52V52.1542L85.9827 62.7449V62.7446ZM66.3768 74.367V92.8708L82.2131 83.4022V64.9794L66.3765 74.3668L66.3768 74.367ZM66.3768 99.9806V120.881L82.2131 111.413V91.0641L66.3765 99.9806H66.3768ZM60.1685 99.9207L44.3319 90.9175V112.047L60.1685 120.792V99.9205V99.9207Z" fill="#A8D883"/>
</svg>
