<svg width="146" height="146" viewBox="0 0 146 146" fill="none" xmlns="http://www.w3.org/2000/svg">
<path d="M73 0C63.4135 0 53.9209 1.8882 45.0641 5.55679C36.2073 9.22539 28.1599 14.6025 21.3812 21.3812C7.69105 35.0714 0 53.6392 0 73C0 92.3608 7.69105 110.929 21.3812 124.619C28.1599 131.397 36.2073 136.775 45.0641 140.443C53.9209 144.112 63.4135 146 73 146C92.3608 146 110.929 138.309 124.619 124.619C138.309 110.929 146 92.3608 146 73C146 63.4135 144.112 53.9209 140.443 45.0641C136.775 36.2073 131.397 28.1599 124.619 21.3812C117.84 14.6025 109.793 9.22539 100.936 5.55679C92.0791 1.8882 82.5865 0 73 0ZM104.901 27.01C112.347 26.791 117.895 30.149 118.333 35.332C118.406 37.595 117.092 41.975 112.566 42.121C109.135 42.267 106.799 40.15 106.726 37.157C106.653 35.989 108.624 32.266 108.624 31.609C108.551 29.638 105.631 29.565 104.828 29.638C93.878 30.003 90.958 44.749 88.622 56.794L87.6 63.145C93.732 64.094 98.258 62.926 100.74 61.32C104.244 59.057 99.718 56.721 100.302 54.093C100.886 51.392 103.295 50.151 105.193 50.078C107.894 50.005 109.792 52.779 109.719 55.626C109.5 60.298 103.441 66.722 91.25 66.43C89.644 66.43 88.257 66.284 86.943 66.138C82.49 88.768 79.716 102.2 69.788 113.734C61.247 123.881 52.56 125.414 48.691 125.56C41.391 125.852 36.5 121.983 36.5 116.8C36.281 111.836 40.661 109.062 43.581 108.989C47.45 108.843 50.151 111.69 50.224 114.902C50.37 117.603 48.91 118.479 47.961 118.99C47.45 119.501 46.355 120.085 46.428 121.18C46.428 121.691 46.939 122.786 48.545 122.713C51.611 122.64 53.582 121.107 55.042 120.085C62.05 114.245 64.824 103.952 68.401 85.264C70.299 74.679 71.686 67.89 73.73 61.174C68.766 57.451 65.7 52.779 59.057 51.1C54.458 49.713 51.684 50.808 49.713 53.29C47.45 56.283 48.18 60.079 50.37 62.342C58.765 71.686 61.247 75.774 60.298 81.322C58.838 90.155 48.326 96.871 35.916 93.075C25.331 89.79 23.36 82.344 24.601 78.183C25.769 74.606 28.616 73.876 31.463 74.752C34.529 75.701 35.697 79.351 34.821 82.198C34.675 82.49 33.215 85.191 32.85 86.067C32.193 88.33 35.259 89.863 37.376 90.52C42.121 91.98 46.72 89.498 47.815 85.629C48.91 82.125 46.72 79.643 45.771 78.694C39.274 71.54 34.748 65.189 36.938 58.035C37.814 55.334 39.566 52.414 42.194 50.443C47.669 46.428 53.655 45.698 59.276 47.45C66.649 49.421 70.153 54.312 74.752 58.035C77.307 50.589 80.884 43.216 86.213 37.011C91.031 31.39 97.455 27.302 104.901 27.01Z" fill="#A8D883"/>
</svg>
