<svg width="146" height="146" viewBox="0 0 146 146" fill="none" xmlns="http://www.w3.org/2000/svg">
<path d="M73 0C32.777 0 0 32.777 0 73C0 113.223 32.777 146 73 146C113.223 146 146 113.223 146 73C146 32.777 113.223 0 73 0ZM7.373 73C7.373 63.51 9.417 54.458 13.067 46.282L44.384 132.057C22.484 121.399 7.373 98.988 7.373 73ZM73 138.627C66.576 138.627 60.371 137.678 54.458 135.926L74.168 78.694L94.316 133.955C94.462 134.247 94.608 134.612 94.754 134.831C87.965 137.313 80.665 138.627 73 138.627ZM82.052 42.194C85.994 41.975 89.571 41.537 89.571 41.537C93.075 41.099 92.71 35.916 89.133 36.135C89.133 36.135 78.475 36.938 71.613 36.938C65.189 36.938 54.312 36.135 54.312 36.135C50.808 35.989 50.37 41.391 53.947 41.61C53.947 41.61 57.305 42.048 60.809 42.267L71.029 70.299L56.648 113.369L32.777 42.194C36.719 42.048 40.296 41.61 40.296 41.61C43.8 41.172 43.435 35.989 39.858 36.208C39.858 36.208 29.2 37.011 22.338 37.011C21.097 37.011 19.637 37.011 18.104 36.938C29.93 19.126 50.078 7.373 73 7.373C90.082 7.373 105.631 13.87 117.311 24.601C117.019 24.601 116.727 24.528 116.435 24.528C110.011 24.528 105.412 30.149 105.412 36.208C105.412 41.61 108.551 46.209 111.836 51.611C114.318 55.991 117.238 61.612 117.238 69.715C117.238 75.336 115.048 81.833 112.274 90.958L105.704 112.858L82.052 42.194ZM130.597 41.537C138.796 56.5432 140.813 74.1575 136.218 90.6287C131.623 107.1 120.779 121.126 105.996 129.721L126.071 71.759C129.794 62.415 131.035 54.896 131.035 48.253C131.035 45.844 130.889 43.581 130.597 41.537Z" fill="#A8D883"/>
</svg>
